<svg xmlns="http://www.w3.org/2000/svg" viewBox="0 0 1200 720" role="img" aria-labelledby="title desc">
  <title id="title">Turbo Guacamole overview</title>
  <desc id="desc">Stylized overview of the Turbo Guacamole beach plinko simulator.</desc>
  <defs>
    <linearGradient id="sky" x1="0" y1="0" x2="0" y2="1">
      <stop offset="0%" stop-color="#86e5ff"/>
      <stop offset="58%" stop-color="#54c8ef"/>
      <stop offset="100%" stop-color="#ffd59b"/>
    </linearGradient>
    <linearGradient id="panel" x1="0" y1="0" x2="1" y2="1">
      <stop offset="0%" stop-color="#fff4cc"/>
      <stop offset="100%" stop-color="#ffd46b"/>
    </linearGradient>
    <linearGradient id="bar" x1="0" y1="0" x2="0" y2="1">
      <stop offset="0%" stop-color="#ff8d74"/>
      <stop offset="100%" stop-color="#ffb703"/>
    </linearGradient>
  </defs>
  <rect width="1200" height="720" fill="url(#sky)"/>
  <circle cx="1020" cy="112" r="56" fill="#fff6bd" opacity="0.95"/>
  <rect x="86" y="74" width="1028" height="572" rx="34" fill="rgba(255,255,255,0.58)" stroke="rgba(0,119,182,0.28)" stroke-width="8"/>
  <text x="132" y="138" font-size="52" font-family="Trebuchet MS, Arial, sans-serif" font-weight="700" fill="#013a63">Turbo Guacamole</text>
  <text x="132" y="182" font-size="26" font-family="Trebuchet MS, Arial, sans-serif" fill="#01577f">Beach Plinko simulator with live histogram feedback</text>

  <rect x="132" y="220" width="936" height="280" rx="28" fill="rgba(255,255,255,0.55)" stroke="rgba(0,119,182,0.3)" stroke-width="6"/>
  <rect x="202" y="402" width="660" height="78" rx="12" fill="rgba(0,119,182,0.18)"/>
  <g fill="#f4a261" stroke="#99582a" stroke-width="3">
    <circle cx="356" cy="266" r="10"/><circle cx="511" cy="266" r="10"/><circle cx="666" cy="266" r="10"/>
    <circle cx="821" cy="266" r="10"/>
    <circle cx="434" cy="318" r="10"/><circle cx="589" cy="318" r="10"/><circle cx="744" cy="318" r="10"/>
    <circle cx="356" cy="370" r="10"/><circle cx="511" cy="370" r="10"/><circle cx="666" cy="370" r="10"/>
    <circle cx="821" cy="370" r="10"/>
  </g>
  <g fill="#ff7f6a" stroke="rgba(1,58,99,0.6)" stroke-width="3">
    <circle cx="598" cy="250" r="12"/>
    <circle cx="621" cy="306" r="12"/>
    <circle cx="642" cy="356" r="12"/>
  </g>
  <g stroke="#0077b6" stroke-width="5">
    <line x1="236" y1="405" x2="236" y2="544"/><line x1="319" y1="405" x2="319" y2="544"/>
    <line x1="402" y1="405" x2="402" y2="544"/><line x1="485" y1="405" x2="485" y2="544"/>
    <line x1="568" y1="405" x2="568" y2="544"/><line x1="651" y1="405" x2="651" y2="544"/>
    <line x1="734" y1="405" x2="734" y2="544"/><line x1="817" y1="405" x2="817" y2="544"/>
  </g>
  <rect x="880" y="242" width="150" height="66" rx="22" fill="url(#panel)" stroke="rgba(1,58,99,0.15)" stroke-width="4"/>
  <text x="955" y="284" text-anchor="middle" font-size="28" font-family="Trebuchet MS, Arial, sans-serif" font-weight="700" fill="#013a63">Reset</text>
  <rect x="880" y="326" width="150" height="66" rx="22" fill="url(#panel)" stroke="rgba(1,58,99,0.15)" stroke-width="4"/>
  <text x="955" y="368" text-anchor="middle" font-size="28" font-family="Trebuchet MS, Arial, sans-serif" font-weight="700" fill="#013a63">Pause</text>

  <rect x="132" y="536" width="936" height="68" rx="24" fill="rgba(255,255,255,0.62)" stroke="rgba(255,183,3,0.5)" stroke-width="4"/>
  <g transform="translate(180 552)">
    <rect x="0" y="26" width="42" height="18" rx="8" fill="url(#bar)"/>
    <rect x="58" y="18" width="42" height="26" rx="8" fill="url(#bar)"/>
    <rect x="116" y="8" width="42" height="36" rx="8" fill="url(#bar)"/>
    <rect x="174" y="2" width="42" height="42" rx="8" fill="url(#bar)"/>
    <rect x="232" y="10" width="42" height="34" rx="8" fill="url(#bar)"/>
    <rect x="290" y="20" width="42" height="24" rx="8" fill="url(#bar)"/>
    <rect x="348" y="30" width="42" height="14" rx="8" fill="url(#bar)"/>
  </g>
  <text x="815" y="580" font-size="24" font-family="Trebuchet MS, Arial, sans-serif" font-weight="700" fill="#013a63">Live distribution tracking</text>
</svg>
