<svg xmlns="http://www.w3.org/2000/svg" viewBox="0 0 1200 720" role="img" aria-labelledby="title desc">
  <title id="title">Inspector Blanque game view</title>
  <desc id="desc">Illustration of Inspector Blanque game review interface with chessboard and analysis controls.</desc>
  <defs>
    <linearGradient id="bg" x1="0" y1="0" x2="1" y2="1">
      <stop offset="0%" stop-color="#1e1e1e"/>
      <stop offset="100%" stop-color="#111215"/>
    </linearGradient>
    <linearGradient id="panel" x1="0" y1="0" x2="0" y2="1">
      <stop offset="0%" stop-color="#2d2d30"/>
      <stop offset="100%" stop-color="#252526"/>
    </linearGradient>
  </defs>
  <rect width="1200" height="720" fill="url(#bg)"/>
  <rect x="96" y="72" width="1008" height="576" rx="34" fill="url(#panel)" stroke="#3e3e42" stroke-width="6"/>
  <text x="142" y="144" font-size="50" font-family="Trebuchet MS, Segoe UI, Arial, sans-serif" font-weight="700" fill="#ffffff">Game View</text>
  <text x="142" y="188" font-size="26" font-family="Trebuchet MS, Segoe UI, Arial, sans-serif" fill="#9da1a6">Move-by-move PGN browsing with board state and best-move reveal</text>

  <rect x="144" y="236" width="420" height="420" rx="18" fill="#17181b" stroke="#3e3e42" stroke-width="4"/>
  <g>
    <rect x="168" y="260" width="372" height="372" rx="10" fill="#111"/>
    <g>
      <rect x="168" y="260" width="46.5" height="46.5" fill="#efe4c8"/><rect x="214.5" y="260" width="46.5" height="46.5" fill="#7f5d40"/>
      <rect x="261" y="260" width="46.5" height="46.5" fill="#efe4c8"/><rect x="307.5" y="260" width="46.5" height="46.5" fill="#7f5d40"/>
      <rect x="354" y="260" width="46.5" height="46.5" fill="#efe4c8"/><rect x="400.5" y="260" width="46.5" height="46.5" fill="#7f5d40"/>
      <rect x="447" y="260" width="46.5" height="46.5" fill="#efe4c8"/><rect x="493.5" y="260" width="46.5" height="46.5" fill="#7f5d40"/>
      <rect x="168" y="306.5" width="46.5" height="46.5" fill="#7f5d40"/><rect x="214.5" y="306.5" width="46.5" height="46.5" fill="#efe4c8"/>
      <rect x="261" y="306.5" width="46.5" height="46.5" fill="#7f5d40"/><rect x="307.5" y="306.5" width="46.5" height="46.5" fill="#efe4c8"/>
      <rect x="354" y="306.5" width="46.5" height="46.5" fill="#7f5d40"/><rect x="400.5" y="306.5" width="46.5" height="46.5" fill="#efe4c8"/>
      <rect x="447" y="306.5" width="46.5" height="46.5" fill="#7f5d40"/><rect x="493.5" y="306.5" width="46.5" height="46.5" fill="#efe4c8"/>
      <rect x="168" y="353" width="46.5" height="46.5" fill="#efe4c8"/><rect x="214.5" y="353" width="46.5" height="46.5" fill="#7f5d40"/>
      <rect x="261" y="353" width="46.5" height="46.5" fill="#efe4c8"/><rect x="307.5" y="353" width="46.5" height="46.5" fill="#7f5d40"/>
      <rect x="354" y="353" width="46.5" height="46.5" fill="#efe4c8"/><rect x="400.5" y="353" width="46.5" height="46.5" fill="#7f5d40"/>
      <rect x="447" y="353" width="46.5" height="46.5" fill="#efe4c8"/><rect x="493.5" y="353" width="46.5" height="46.5" fill="#7f5d40"/>
      <rect x="168" y="399.5" width="46.5" height="46.5" fill="#7f5d40"/><rect x="214.5" y="399.5" width="46.5" height="46.5" fill="#efe4c8"/>
      <rect x="261" y="399.5" width="46.5" height="46.5" fill="#7f5d40"/><rect x="307.5" y="399.5" width="46.5" height="46.5" fill="#efe4c8"/>
      <rect x="354" y="399.5" width="46.5" height="46.5" fill="#7f5d40"/><rect x="400.5" y="399.5" width="46.5" height="46.5" fill="#efe4c8"/>
      <rect x="447" y="399.5" width="46.5" height="46.5" fill="#7f5d40"/><rect x="493.5" y="399.5" width="46.5" height="46.5" fill="#efe4c8"/>
      <rect x="168" y="446" width="46.5" height="46.5" fill="#efe4c8"/><rect x="214.5" y="446" width="46.5" height="46.5" fill="#7f5d40"/>
      <rect x="261" y="446" width="46.5" height="46.5" fill="#efe4c8"/><rect x="307.5" y="446" width="46.5" height="46.5" fill="#7f5d40"/>
      <rect x="354" y="446" width="46.5" height="46.5" fill="#efe4c8"/><rect x="400.5" y="446" width="46.5" height="46.5" fill="#7f5d40"/>
      <rect x="447" y="446" width="46.5" height="46.5" fill="#efe4c8"/><rect x="493.5" y="446" width="46.5" height="46.5" fill="#7f5d40"/>
      <rect x="168" y="492.5" width="46.5" height="46.5" fill="#7f5d40"/><rect x="214.5" y="492.5" width="46.5" height="46.5" fill="#efe4c8"/>
      <rect x="261" y="492.5" width="46.5" height="46.5" fill="#7f5d40"/><rect x="307.5" y="492.5" width="46.5" height="46.5" fill="#efe4c8"/>
      <rect x="354" y="492.5" width="46.5" height="46.5" fill="#7f5d40"/><rect x="400.5" y="492.5" width="46.5" height="46.5" fill="#efe4c8"/>
      <rect x="447" y="492.5" width="46.5" height="46.5" fill="#7f5d40"/><rect x="493.5" y="492.5" width="46.5" height="46.5" fill="#efe4c8"/>
      <rect x="168" y="539" width="46.5" height="46.5" fill="#efe4c8"/><rect x="214.5" y="539" width="46.5" height="46.5" fill="#7f5d40"/>
      <rect x="261" y="539" width="46.5" height="46.5" fill="#efe4c8"/><rect x="307.5" y="539" width="46.5" height="46.5" fill="#7f5d40"/>
      <rect x="354" y="539" width="46.5" height="46.5" fill="#efe4c8"/><rect x="400.5" y="539" width="46.5" height="46.5" fill="#7f5d40"/>
      <rect x="447" y="539" width="46.5" height="46.5" fill="#efe4c8"/><rect x="493.5" y="539" width="46.5" height="46.5" fill="#7f5d40"/>
      <rect x="168" y="585.5" width="46.5" height="46.5" fill="#7f5d40"/><rect x="214.5" y="585.5" width="46.5" height="46.5" fill="#efe4c8"/>
      <rect x="261" y="585.5" width="46.5" height="46.5" fill="#7f5d40"/><rect x="307.5" y="585.5" width="46.5" height="46.5" fill="#efe4c8"/>
      <rect x="354" y="585.5" width="46.5" height="46.5" fill="#7f5d40"/><rect x="400.5" y="585.5" width="46.5" height="46.5" fill="#efe4c8"/>
      <rect x="447" y="585.5" width="46.5" height="46.5" fill="#7f5d40"/><rect x="493.5" y="585.5" width="46.5" height="46.5" fill="#efe4c8"/>
    </g>
    <line x1="238" y1="553" x2="470" y2="367" stroke="rgba(103,232,130,0.92)" stroke-width="10" stroke-linecap="round"/>
    <polygon points="470,367 438,367 454,392" fill="rgba(103,232,130,0.92)"/>
  </g>

  <rect x="614" y="238" width="436" height="148" rx="18" fill="#252526" stroke="#3e3e42" stroke-width="4"/>
  <text x="646" y="290" font-size="28" font-family="Trebuchet MS, Segoe UI, Arial, sans-serif" font-weight="700" fill="#d4d4d4">Move quality</text>
  <text x="646" y="336" font-size="24" font-family="Trebuchet MS, Segoe UI, Arial, sans-serif" fill="#9da1a6">12... Nf6: Mistake</text>

  <rect x="614" y="410" width="436" height="206" rx="18" fill="#252526" stroke="#3e3e42" stroke-width="4"/>
  <text x="646" y="462" font-size="28" font-family="Trebuchet MS, Segoe UI, Arial, sans-serif" font-weight="700" fill="#d4d4d4">Review controls</text>
  <rect x="648" y="496" width="132" height="50" rx="12" fill="#264f78"/><text x="714" y="528" text-anchor="middle" font-size="22" font-family="Trebuchet MS, Segoe UI, Arial, sans-serif" fill="#ffffff">Prev</text>
  <rect x="798" y="496" width="132" height="50" rx="12" fill="#264f78"/><text x="864" y="528" text-anchor="middle" font-size="22" font-family="Trebuchet MS, Segoe UI, Arial, sans-serif" fill="#ffffff">Best Move</text>
  <rect x="948" y="496" width="70" height="50" rx="12" fill="#264f78"/><text x="983" y="528" text-anchor="middle" font-size="22" font-family="Trebuchet MS, Segoe UI, Arial, sans-serif" fill="#ffffff">→</text>
  <text x="646" y="586" font-size="22" font-family="Trebuchet MS, Segoe UI, Arial, sans-serif" fill="#9da1a6">Jump to mistakes, flip the board, and browse full game context.</text>
</svg>
